<?xml version="1.0" encoding="UTF-8"?>
<svg xmlns="http://www.w3.org/2000/svg" viewBox="0 0 512 512" width="512" height="512">
  <!-- Warm amber background -->
  <rect width="512" height="512" rx="96" fill="#d97706"/>

  <!-- Book body (left page) -->
  <rect x="96" y="120" width="148" height="292" rx="12" fill="#fef3c7" stroke="#92400e" stroke-width="6"/>
  <!-- Book body (right page) -->
  <rect x="268" y="120" width="148" height="292" rx="12" fill="#fffbeb" stroke="#92400e" stroke-width="6"/>
  <!-- Spine -->
  <rect x="240" y="114" width="32" height="304" rx="6" fill="#b45309"/>

  <!-- Lines on left page -->
  <line x1="116" y1="180" x2="228" y2="180" stroke="#fcd34d" stroke-width="8" stroke-linecap="round"/>
  <line x1="116" y1="212" x2="228" y2="212" stroke="#fcd34d" stroke-width="6" stroke-linecap="round"/>
  <line x1="116" y1="240" x2="200" y2="240" stroke="#fcd34d" stroke-width="6" stroke-linecap="round"/>
  <line x1="116" y1="268" x2="228" y2="268" stroke="#fde68a" stroke-width="5" stroke-linecap="round"/>
  <line x1="116" y1="294" x2="180" y2="294" stroke="#fde68a" stroke-width="5" stroke-linecap="round"/>

  <!-- Lines on right page -->
  <line x1="288" y1="180" x2="400" y2="180" stroke="#fcd34d" stroke-width="8" stroke-linecap="round"/>
  <line x1="288" y1="212" x2="400" y2="212" stroke="#fcd34d" stroke-width="6" stroke-linecap="round"/>
  <line x1="288" y1="240" x2="360" y2="240" stroke="#fcd34d" stroke-width="6" stroke-linecap="round"/>
  <line x1="288" y1="268" x2="400" y2="268" stroke="#fde68a" stroke-width="5" stroke-linecap="round"/>
  <line x1="288" y1="294" x2="340" y2="294" stroke="#fde68a" stroke-width="5" stroke-linecap="round"/>

  <!-- Magnifying glass circle -->
  <circle cx="340" cy="340" r="82" fill="none" stroke="#92400e" stroke-width="18"/>
  <circle cx="340" cy="340" r="64" fill="rgba(254,243,199,0.55)"/>

  <!-- Magnifying glass handle -->
  <line x1="398" y1="398" x2="448" y2="448" stroke="#92400e" stroke-width="20" stroke-linecap="round"/>

  <!-- Lens sparkle / AI dot -->
  <circle cx="340" cy="340" r="18" fill="#d97706"/>
  <circle cx="328" cy="328" r="6" fill="#fef3c7" opacity="0.9"/>
</svg>